<svg id="Layer_1" data-name="Layer 1" xmlns="http://www.w3.org/2000/svg" viewBox="0 0 300 300"><defs><style>.cls-1{isolation:isolate;}.cls-2{fill:#0093ca;}.cls-3{fill:#00bff3;}.cls-4{fill:#00c4f8;}</style></defs><g class="cls-1"><polygon class="cls-2" points="267.18 220.84 149.81 152.63 121.53 95.09 238.9 163.3 267.18 220.84"/><polygon class="cls-2" points="239.11 237.04 121.74 168.83 72.49 63.83 189.85 132.03 239.11 237.04"/><polygon class="cls-3" points="266.8 87.61 267.18 220.84 238.9 163.3 239.11 237.04 189.85 132.03 266.8 87.61"/><polygon class="cls-4" points="189.85 132.03 72.49 63.83 149.43 19.41 266.8 87.61 189.85 132.03"/><polygon class="cls-2" points="178.75 212.29 61.38 144.09 61.17 70.36 178.54 138.57 178.75 212.29"/><polygon class="cls-2" points="150.87 287.99 33.5 219.78 33.12 86.56 150.49 154.76 150.87 287.99"/><polygon class="cls-3" points="178.54 138.57 227.8 243.57 150.87 287.99 150.49 154.76 178.75 212.29 178.54 138.57"/></g></svg>