<svg xmlns="http://www.w3.org/2000/svg" viewBox="0 0 908.93 526.29"><polygon points="485.66 186.59 493.82 186.84 486.2 203.27 493.4 204.25 482 223.19 484.73 207.82 477.34 206.6 485.66 186.59" fill="#00bff3" fill-opacity="0.68" opacity="0.65"/><polygon points="343.66 501.69 349.04 500.31 347.16 512.48 352.05 511.76 348.17 526.29 347.05 515.73 342 516.33 343.66 501.69" fill="#00bff3" fill-opacity="0.68" opacity="0.5"/><polygon points="807.63 76.2 813.01 74.82 811.14 87 816.03 86.28 812.14 100.81 811.03 90.25 805.97 90.84 807.63 76.2" fill="#00bff3" fill-opacity="0.68" opacity="0.65"/><polygon points="897.14 2.98 902.5 0 903.91 13.54 908.93 11.4 908.86 28.01 904.71 17.04 899.47 19.1 897.14 2.98" fill="#00bff3" fill-opacity="0.68" opacity="0.4"/><polygon points="227.53 54.23 234.73 50.38 236.28 68.44 243.02 65.7 242.53 87.81 237.26 73.11 230.25 75.72 227.53 54.23" fill="#00bff3" fill-opacity="0.68" opacity="0.4"/><polygon points="449.23 356.99 456.8 360.05 443.96 372.83 450.38 376.24 433.11 390.06 441 376.58 434.49 372.88 449.23 356.99" fill="#00bff3" fill-opacity="0.68" opacity="0.2"/><polygon points="874.51 379.87 881.58 379.07 877.04 394.18 883.37 394.13 875.87 411.86 876.33 398.27 869.82 398.14 874.51 379.87" fill="#00bff3" fill-opacity="0.68" opacity="0.65"/><polygon points="715.3 233.81 718.89 231.1 721.29 240.8 724.73 238.74 726.36 250.83 722.23 243.27 718.63 245.29 715.3 233.81" fill="#00bff3" fill-opacity="0.68" opacity="0.5"/><polygon points="286.82 133.65 290.29 135.05 284.41 140.91 287.35 142.47 279.44 148.81 283.05 142.63 280.07 140.94 286.82 133.65" fill="#00bff3" fill-opacity="0.68" opacity="0.65"/><polygon points="0 486.02 3.92 483.94 4.76 493.75 8.43 492.27 8.16 504.29 5.29 496.3 1.48 497.72 0 486.02" fill="#00bff3" fill-opacity="0.68" opacity="0.65"/><polygon points="109.91 257.19 114.15 258.48 107.81 266.02 111.45 267.56 102.76 275.87 106.38 268.19 102.68 266.5 109.91 257.19" fill="#00bff3" fill-opacity="0.68" opacity="0.65"/><polygon points="54.57 148.8 58.15 146.9 58.92 155.86 62.26 154.51 62.02 165.49 59.4 158.19 55.92 159.48 54.57 148.8" fill="#00bff3" fill-opacity="0.68" opacity="0.2"/><polygon points="650.86 62.84 654.44 60.93 655.21 69.9 658.56 68.55 658.31 79.53 655.7 72.22 652.21 73.52 650.86 62.84" fill="#00bff3" fill-opacity="0.68" opacity="0.4"/><polygon points="44.13 22.18 51.57 23.77 41.84 37.56 48.27 39.66 34.64 55.1 39.72 41.47 33.16 39.12 44.13 22.18" fill="#00bff3" fill-opacity="0.68" opacity="0.65"/><polygon points="619.24 364.18 623.21 365.03 618.01 372.4 621.44 373.52 614.16 381.77 616.88 374.49 613.37 373.23 619.24 364.18" fill="#00bff3" fill-opacity="0.68" opacity="0.65"/><polygon points="449.99 0.89 453.97 1.74 448.76 9.11 452.2 10.23 444.92 18.48 447.63 11.2 444.13 9.94 449.99 0.89" fill="#00bff3" fill-opacity="0.68" opacity="0.65"/></svg>